<svg viewBox="0 0 576 512" xmlns="http://www.w3.org/2000/svg" xmlns:xlink="http://www.w3.org/1999/xlink" overflow="hidden"><path d="M511.8 287.6 512.5 447.7C512.6 483.2 483.9 512 448.5 512L128.1 512C92.75 512 64.09 483.3 64.09 448L64.09 287.6 32.05 287.6C14.02 287.6 0 273.5 0 255.5 0 246.5 3.004 238.5 10.01 231.5L266.4 8.016C273.4 1.002 281.4 0 288.4 0 295.4 0 303.4 2.004 309.5 7.014L416 100.7 416 64C416 46.33 430.3 32 448 32L480 32C497.7 32 512 46.33 512 64L512 185 564.8 231.5C572.8 238.5 576.9 246.5 575.8 255.5 575.8 273.5 560.8 287.6 543.8 287.6L511.8 287.6ZM288 288C323.3 288 352 259.3 352 224 352 188.7 323.3 160 288 160 252.7 160 224 188.7 224 224 224 259.3 252.7 288 288 288ZM192 416 384 416C392.8 416 400 408.8 400 400 400 355.8 364.2 320 320 320L256 320C211.8 320 176 355.8 176 400 176 408.8 183.2 416 192 416Z" fill="#00CDCD"/></svg>